<?xml version="1.0" encoding="UTF-8" standalone="no"?>
<svg
   width="128"
   height="128"
   viewBox="0 0 24 24"
   version="1.1"
   id="svg59"
   sodipodi:docname="Modelize-me.svg"
   inkscape:version="1.1.2 (0a00cf5339, 2022-02-04)"
   xmlns:inkscape="http://www.inkscape.org/namespaces/inkscape"
   xmlns:sodipodi="http://sodipodi.sourceforge.net/DTD/sodipodi-0.dtd"
   xmlns="http://www.w3.org/2000/svg"
   xmlns:svg="http://www.w3.org/2000/svg">
  <defs
     id="defs63" />
  <sodipodi:namedview
     id="namedview61"
     pagecolor="#ffffff"
     bordercolor="#666666"
     borderopacity="1.0"
     inkscape:pageshadow="2"
     inkscape:pageopacity="0.0"
     inkscape:pagecheckerboard="0"
     showgrid="true"
     inkscape:zoom="4.5299028"
     inkscape:cx="53.533157"
     inkscape:cy="46.579366"
     inkscape:window-width="1920"
     inkscape:window-height="1071"
     inkscape:window-x="0"
     inkscape:window-y="27"
     inkscape:window-maximized="1"
     inkscape:current-layer="g57">
    <inkscape:grid
       type="xygrid"
       id="grid14366" />
  </sodipodi:namedview>
  <g
     fill="none"
     stroke="#0284c7"
     stroke-linecap="round"
     stroke-linejoin="round"
     stroke-width="1.5"
     color="#0284c7"
     id="g57">
    <path
       d="m 14.597872,12.318327 a 2,2 0 1 1 -4,0 2,2 0 0 1 4,0"
       id="path53"
       style="stroke-width:1.125;stroke-miterlimit:4;stroke-dasharray:none;stroke:#0ea5e9;stroke-opacity:1" />
    <g
       id="g11024"
       style="stroke:#0ea5e9;stroke-opacity:1">
      <path
         d="m 2.3694478,18.820965 h 4 v 4 h -4 v -4"
         id="path666"
         sodipodi:nodetypes="ccccc"
         style="stroke-width:1.125;stroke-miterlimit:4;stroke-dasharray:none;stroke:#0ea5e9;stroke-opacity:1" />
      <path
         d="M 10.36347,12.289749 H 8.3634688 c -1.886,0 -2.828,0 -3.414,0.586 -0.586,0.586 -0.586,1.528 -0.586,3.414 v 2"
         id="path660"
         style="stroke-width:1.125;stroke-miterlimit:4;stroke-dasharray:none;stroke:#0ea5e9;stroke-opacity:1" />
      <path
         d="m 3.5625,20.0625 h 1.5 v 1.5 h -1.5 v -1.5"
         id="path13232"
         sodipodi:nodetypes="ccccc"
         style="fill:#0ea5e9;fill-opacity:1.0;stroke-width:0;stroke-miterlimit:4;stroke-dasharray:none;stroke:#0ea5e9;stroke-opacity:1" />
      <path
         d="m 19.875,3 h 1.5 v 1.5 h -1.5 V 3"
         id="path14368"
         sodipodi:nodetypes="ccccc"
         style="fill:#0ea5e9;fill-opacity:1.0;stroke-width:0;stroke-miterlimit:4;stroke-dasharray:none;stroke:#0ea5e9;stroke-opacity:1" />
    </g>
    <g
       id="g11030"
       transform="rotate(180,12.480671,12.304038)"
       style="stroke:#0ea5e9;stroke-opacity:1">
      <path
         d="m 2.3694478,18.820965 h 4 v 4 h -4 v -4"
         id="path11026"
         sodipodi:nodetypes="ccccc"
         style="stroke-width:1.125;stroke-miterlimit:4;stroke-dasharray:none;stroke:#0ea5e9;stroke-opacity:1" />
      <path
         d="M 10.36347,12.289749 H 8.3634688 c -1.886,0 -2.828,0 -3.414,0.586 -0.586,0.586 -0.586,1.528 -0.586,3.414 v 2"
         id="path11028"
         style="stroke-width:1.125;stroke-miterlimit:4;stroke-dasharray:none;stroke:#0ea5e9;stroke-opacity:1" />
    </g>
    <path
       d="m 14.597872,12.318327 a 2,2 0 1 1 -4,0 2,2 0 0 1 4,0"
       id="path11043"
       style="stroke-width:0;stroke-miterlimit:4;stroke-dasharray:none" />
  </g>
</svg>
